<?xml version="1.0" standalone="no"?>
<!DOCTYPE svg PUBLIC "-//W3C//DTD SVG 20010904//EN"
 "http://www.w3.org/TR/2001/REC-SVG-20010904/DTD/svg10.dtd">
<svg version="1.0" xmlns="http://www.w3.org/2000/svg"
 width="268.000000pt" height="268.000000pt" viewBox="0 0 268.000000 268.000000"
 preserveAspectRatio="xMidYMid meet">

<g transform="translate(0.000000,268.000000) scale(0.100000,-0.100000)"
fill="#ffffff" stroke="none">
<path d="M1543 1934 c-104 -105 -173 -184 -173 -195 0 -42 28 -88 57 -95 15
-3 33 -13 40 -21 6 -8 16 -13 22 -12 5 2 47 47 92 99 45 52 93 103 106 113 24
19 24 19 38 1 17 -22 35 -79 35 -109 0 -12 32 -129 71 -260 39 -132 74 -248
76 -257 7 -23 11 -22 68 2 56 24 57 6 -14 210 -28 80 -51 153 -51 163 0 25 16
13 24 -17 10 -40 46 -119 52 -114 6 6 -21 121 -36 153 -5 11 -17 47 -25 80 -9
33 -29 107 -45 165 -15 58 -31 128 -35 155 -4 28 -15 58 -24 69 -16 19 -70 46
-93 46 -7 0 -91 -79 -185 -176z m37 -13 c-41 -38 -77 -67 -79 -65 -6 6 132
133 144 133 6 0 -24 -30 -65 -68z m60 -79 c0 -4 -30 -37 -66 -72 -73 -72 -72
-53 1 28 44 48 65 63 65 44z m-144 -179 c-10 -10 -19 5 -10 18 6 11 8 11 12 0
2 -7 1 -15 -2 -18z m344 -60 c0 -22 -8 -14 -19 20 -10 29 -9 30 4 13 8 -11 15
-26 15 -33z m20 -71 c0 -15 -2 -15 -10 -2 -13 20 -13 33 0 25 6 -3 10 -14 10
-23z m44 -135 c15 -49 25 -94 23 -100 -2 -7 -13 22 -25 63 -12 41 -28 87 -36
102 -8 14 -12 29 -8 32 10 11 18 -7 46 -97z"/>
<path d="M565 1505 c-47 -14 -47 -10 -12 -165 44 -193 50 -316 7 -150 -10 39
-21 74 -24 78 -9 8 -6 -57 5 -113 6 -27 14 -77 19 -110 5 -33 14 -94 20 -135
7 -41 15 -119 18 -173 7 -95 8 -100 40 -128 52 -46 74 -40 197 57 295 230 265
202 265 251 0 34 -6 50 -25 69 -14 14 -30 22 -35 19 -6 -3 -13 1 -16 9 -11 29
-36 17 -111 -51 -95 -86 -153 -128 -162 -117 -16 18 -31 78 -31 123 0 25 -18
158 -40 294 -22 137 -40 250 -40 253 0 7 -33 3 -75 -11z m64 -177 c7 -46 19
-93 27 -105 8 -13 10 -23 5 -23 -5 0 -11 -8 -13 -17 -2 -10 -12 29 -21 87 -10
58 -21 113 -23 123 -3 9 -1 17 4 17 5 0 14 -37 21 -82z m28 -190 c-3 -8 -6 -5
-6 6 -1 11 2 17 5 13 3 -3 4 -12 1 -19z m13 -52 c0 -8 3 -22 7 -32 4 -11 3
-15 -4 -11 -13 8 -23 57 -12 57 5 0 9 -6 9 -14z m330 -111 c-7 -9 -15 -13 -18
-10 -3 2 1 11 8 20 7 9 15 13 18 10 3 -2 -1 -11 -8 -20z m-60 -70 c-40 -41
-108 -90 -115 -83 -6 6 125 117 139 117 6 1 -5 -15 -24 -34z m20 -110 c0 -5
-148 -115 -155 -115 -18 0 4 21 60 59 36 24 68 47 71 52 5 9 24 13 24 4z"/>
<path d="M794 1461 c4 -5 -3 -15 -14 -21 -20 -11 -21 -13 -5 -36 13 -21 14
-32 6 -56 -14 -40 -14 -115 0 -124 16 -9 29 15 29 53 0 27 6 35 35 49 20 9 44
29 55 44 20 27 27 79 13 81 -32 3 -53 7 -86 13 -26 5 -37 4 -33 -3z m72 -76
c-19 -29 -41 -29 -41 0 0 12 9 21 25 25 33 9 36 5 16 -25z"/>
<path d="M955 1446 c-17 -12 -17 -16 -6 -30 11 -13 11 -22 3 -41 -6 -13 -14
-47 -18 -75 -6 -46 -5 -50 15 -50 17 0 21 6 21 35 0 40 14 46 31 13 17 -33 71
-88 86 -88 22 0 15 19 -22 64 -40 49 -42 57 -17 73 27 16 29 89 3 103 -28 14
-74 12 -96 -4z m92 -32 c4 -12 -45 -49 -54 -40 -3 3 -2 17 1 31 5 20 12 26 28
23 12 -2 23 -8 25 -14z"/>
<path d="M1148 1423 c-46 -49 -58 -74 -51 -104 22 -90 131 -92 168 -3 16 38
10 123 -9 136 -29 20 -72 8 -108 -29z m94 -38 c2 -19 2 -32 -1 -30 -2 3 -12
-8 -22 -24 -10 -17 -27 -35 -38 -40 -16 -9 -23 -7 -35 10 -19 27 -6 65 32 96
40 33 59 30 64 -12z"/>
<path d="M1486 1425 c-50 -45 -45 -60 29 -82 44 -13 37 -36 -15 -53 -59 -19
-57 -17 -33 -42 19 -19 25 -20 52 -8 17 7 43 27 57 44 l26 31 -42 37 -43 38
41 18 c43 18 53 36 26 46 -33 13 -62 5 -98 -29z"/>
<path d="M1635 1450 c-8 -12 -24 -193 -18 -203 2 -4 9 -4 15 -1 6 4 8 -1 4
-14 -5 -14 -1 -22 11 -27 17 -6 17 -7 0 -20 -16 -12 -21 -55 -15 -135 0 -8 -2
-34 -6 -57 -5 -29 -4 -43 3 -43 13 0 14 -59 1 -80 -7 -11 -3 -18 13 -27 l22
-12 -24 -9 c-14 -5 -20 -11 -14 -15 18 -11 43 3 43 24 0 10 -4 19 -10 19 -18
0 -11 20 8 20 16 1 16 2 -1 15 -15 10 -17 21 -12 44 4 17 11 31 17 31 7 0 7 4
0 13 -7 8 -7 29 -1 62 11 57 5 80 -16 71 -22 -8 -18 7 5 22 22 14 23 60 0 86
-10 13 -10 16 4 16 9 0 16 4 16 9 0 5 12 12 27 16 32 8 53 23 53 38 0 6 -22 8
-60 4 -33 -3 -60 -2 -60 1 1 21 25 38 65 47 59 13 62 29 8 33 -29 2 -43 8 -43
18 0 8 10 14 23 14 17 0 19 2 8 9 -11 7 -4 10 24 13 21 2 40 9 43 16 5 15
-123 18 -133 2z m35 -369 c0 -5 -7 -14 -15 -21 -12 -10 -15 -10 -15 2 0 8 3
18 7 21 9 10 23 9 23 -2z"/>
<path d="M1308 1378 c6 -8 8 -18 4 -23 -9 -9 105 -1 115 8 13 13 -8 21 -70 25
-54 4 -60 3 -49 -10z"/>
<path d="M1479 1203 c-5 -46 -2 -204 3 -205 11 -4 13 -122 2 -125 -9 -3 -10
-130 -1 -140 3 -2 14 0 24 6 17 10 17 10 -2 11 -20 1 -20 1 -1 15 14 11 16 15
5 15 -11 0 -11 2 -1 8 7 5 10 16 7 24 -4 9 -2 19 4 23 6 3 11 11 11 17 0 6
-10 3 -22 -8 -15 -13 -19 -14 -10 -3 8 11 12 41 10 85 -2 44 1 69 8 71 7 2 10
12 7 23 -3 11 -11 16 -19 13 -8 -3 -14 1 -14 10 0 8 7 17 15 21 21 8 19 26 -2
26 -16 1 -16 2 1 15 13 10 15 15 6 15 -9 0 -7 5 6 15 18 14 18 14 -6 15 l-24
0 22 16 c30 21 28 44 -3 44 -14 0 -25 -3 -26 -7z"/>
</g>
</svg>
